# xmcd
#
# Track frame offsets: 
#        150
#        10598
#        21469
#        33908
#        47014
#        58412
#        73320
#        92039
#        104163
#        115231
#        129244
#        142207
#        154891
#
# Disc length: 2216 seconds
#
# Revision: 0
# Processed by: cddbd v1.5.2PL0 Copyright (c) Steve Scherf et al.
# Submitted via: ExactAudioCopy v0.95b4
#
DISCID=bf08a60d
DTITLE=Cuttin Grass - Out Standing In Their Field
DYEAR=1900
DGENRE=Bluegrass
TTITLE0=Bark Mill Hallow Archives
TTITLE1=I Thought You Loved Me
TTITLE2=I'd Do It All Again
TTITLE3=Someplace Far Away
TTITLE4=Love's The Only Way
TTITLE5=2 Miles Under Ground
TTITLE6=She Never Knew
TTITLE7=Tim's Breakdown
TTITLE8=Lazy All My Days
TTITLE9=Big Bug In My Beer
TTITLE10=Salt Creek-Sharp Dressed Man
TTITLE11=My Old Grandpa
TTITLE12=Amazing Grace
EXTD=
EXTT0=
EXTT1=
EXTT2=
EXTT3=
EXTT4=
EXTT5=
EXTT6=
EXTT7=
EXTT8=
EXTT9=
EXTT10=
EXTT11=
EXTT12=
PLAYORDER=
